<svg width="65" height="65" viewBox="0 0 65 65" fill="none" xmlns="http://www.w3.org/2000/svg">
<path d="M37.9167 12.1876C37.9167 11.4292 38.5125 10.8334 39.2709 10.8334C40.0292 10.8334 40.625 11.4292 40.625 12.1876C40.625 12.9459 40.0292 13.5417 39.2709 13.5417C38.5125 13.5417 37.9167 12.9459 37.9167 12.1876ZM54.1667 51.4584C54.1667 57.4438 49.3188 62.2917 43.3334 62.2917H21.6667C15.6813 62.2917 10.8334 57.4438 10.8334 51.4584C10.8334 45.473 15.6813 40.6251 21.6667 40.6251H22.0188C15.3563 36.9417 10.8334 29.7917 10.8334 21.6667C10.8334 15.1938 13.7042 9.398 18.2 5.41675H46.8C51.2959 9.398 54.1667 15.1938 54.1667 21.6667C54.1667 29.7917 49.6438 36.9417 42.9813 40.6251H43.3334C49.3188 40.6251 54.1667 45.473 54.1667 51.4584ZM44.6875 32.5001C44.6875 29.5209 42.2771 27.0834 39.2709 27.0834C36.2646 27.0834 33.8542 29.5209 33.8542 32.5001C33.8542 35.5063 36.2917 37.9167 39.2709 37.9167C42.25 37.9167 44.6875 35.5063 44.6875 32.5001ZM46.0417 16.2501C43.0625 16.2501 40.625 18.6876 40.625 21.6667C40.625 24.673 43.0625 27.0834 46.0417 27.0834C49.0209 27.0834 51.4584 24.673 51.4584 21.6667C51.4584 18.6876 49.048 16.2501 46.0417 16.2501ZM35.2084 12.1876C35.2084 14.4355 37.023 16.2501 39.2709 16.2501C41.5188 16.2501 43.3334 14.4355 43.3334 12.1876C43.3334 9.93966 41.5188 8.12508 39.2709 8.12508C37.023 8.12508 35.2084 9.93966 35.2084 12.1876ZM32.5 16.2501C29.5209 16.2501 27.0834 18.6876 27.0834 21.6667C27.0834 24.673 29.5209 27.0834 32.5 27.0834C35.4792 27.0834 37.9167 24.673 37.9167 21.6667C37.9167 18.6876 35.5063 16.2501 32.5 16.2501ZM21.6667 12.1876C21.6667 14.4355 23.4813 16.2501 25.7292 16.2501C27.9771 16.2501 29.7917 14.4355 29.7917 12.1876C29.7917 9.93966 27.9771 8.12508 25.7292 8.12508C23.4813 8.12508 21.6667 9.93966 21.6667 12.1876ZM18.9584 27.0834C21.9646 27.0834 24.375 24.673 24.375 21.6667C24.375 18.6876 21.9646 16.2501 18.9584 16.2501C15.9521 16.2501 13.5417 18.6876 13.5417 21.6667C13.5417 24.673 15.9792 27.0834 18.9584 27.0834ZM25.7292 37.9167C28.7355 37.9167 31.1459 35.5063 31.1459 32.5001C31.1459 29.5209 28.7355 27.0834 25.7292 27.0834C22.723 27.0834 20.3125 29.5209 20.3125 32.5001C20.3125 35.5063 22.75 37.9167 25.7292 37.9167ZM29.7917 51.4584C29.7917 46.9626 26.1625 43.3334 21.6667 43.3334C17.1709 43.3334 13.5417 46.9626 13.5417 51.4584C13.5417 55.9542 17.1709 59.5834 21.6667 59.5834C26.1625 59.5834 29.7917 55.9542 29.7917 51.4584ZM51.4584 51.4584C51.4584 46.9626 47.8292 43.3334 43.3334 43.3334C38.8375 43.3334 35.2084 46.9626 35.2084 51.4584C35.2084 55.9542 38.8375 59.5834 43.3334 59.5834C47.8292 59.5834 51.4584 55.9542 51.4584 51.4584ZM46.0417 23.0209C46.8 23.0209 47.3959 22.4251 47.3959 21.6667C47.3959 20.9084 46.8 20.3126 46.0417 20.3126C45.2834 20.3126 44.6875 20.9084 44.6875 21.6667C44.6875 22.4251 45.2834 23.0209 46.0417 23.0209ZM39.2709 31.1459C38.5125 31.1459 37.9167 31.7417 37.9167 32.5001C37.9167 33.2584 38.5125 33.8542 39.2709 33.8542C40.0292 33.8542 40.625 33.2584 40.625 32.5001C40.625 31.7417 40.0292 31.1459 39.2709 31.1459ZM43.3334 48.7501C41.8438 48.7501 40.625 49.9688 40.625 51.4584C40.625 52.948 41.8438 54.1667 43.3334 54.1667C44.823 54.1667 46.0417 52.948 46.0417 51.4584C46.0417 49.9688 44.823 48.7501 43.3334 48.7501ZM32.5 23.0209C33.2584 23.0209 33.8542 22.4251 33.8542 21.6667C33.8542 20.9084 33.2584 20.3126 32.5 20.3126C31.7417 20.3126 31.1459 20.9084 31.1459 21.6667C31.1459 22.4251 31.7417 23.0209 32.5 23.0209ZM21.6667 48.7501C20.1771 48.7501 18.9584 49.9688 18.9584 51.4584C18.9584 52.948 20.1771 54.1667 21.6667 54.1667C23.1563 54.1667 24.375 52.948 24.375 51.4584C24.375 49.9688 23.1563 48.7501 21.6667 48.7501ZM18.9584 20.3126C18.2 20.3126 17.6042 20.9084 17.6042 21.6667C17.6042 22.4251 18.2 23.0209 18.9584 23.0209C19.7167 23.0209 20.3125 22.4251 20.3125 21.6667C20.3125 20.9084 19.7167 20.3126 18.9584 20.3126ZM25.7292 13.5417C26.4875 13.5417 27.0834 12.9459 27.0834 12.1876C27.0834 11.4292 26.4875 10.8334 25.7292 10.8334C24.9709 10.8334 24.375 11.4292 24.375 12.1876C24.375 12.9459 24.9709 13.5417 25.7292 13.5417ZM27.0834 32.5001C27.0834 31.7417 26.4875 31.1459 25.7292 31.1459C24.9709 31.1459 24.375 31.7417 24.375 32.5001C24.375 33.2584 24.9709 33.8542 25.7292 33.8542C26.4875 33.8542 27.0834 33.2584 27.0834 32.5001Z" fill="black"/>
</svg>
