<svg width="65" height="65" viewBox="0 0 65 65" fill="none" xmlns="http://www.w3.org/2000/svg">
<path d="M20.3125 29.7917C20.3125 30.5501 19.7167 31.1459 18.9584 31.1459C18.2 31.1459 17.6042 30.5501 17.6042 29.7917C17.6042 29.0334 18.2 28.4376 18.9584 28.4376C19.7167 28.4376 20.3125 29.0334 20.3125 29.7917ZM25.7292 39.2709C24.9709 39.2709 24.375 39.8667 24.375 40.6251C24.375 41.3834 24.9709 41.9792 25.7292 41.9792C26.4875 41.9792 27.0834 41.3834 27.0834 40.6251C27.0834 39.8667 26.4875 39.2709 25.7292 39.2709ZM25.7292 21.6667C26.4875 21.6667 27.0834 21.0709 27.0834 20.3126C27.0834 19.5542 26.4875 18.9584 25.7292 18.9584C24.9709 18.9584 24.375 19.5542 24.375 20.3126C24.375 21.0709 24.9709 21.6667 25.7292 21.6667ZM39.2709 21.6667C40.0292 21.6667 40.625 21.0709 40.625 20.3126C40.625 19.5542 40.0292 18.9584 39.2709 18.9584C38.5125 18.9584 37.9167 19.5542 37.9167 20.3126C37.9167 21.0709 38.5125 21.6667 39.2709 21.6667ZM32.5 28.4376C31.7417 28.4376 31.1459 29.0334 31.1459 29.7917C31.1459 30.5501 31.7417 31.1459 32.5 31.1459C33.2584 31.1459 33.8542 30.5501 33.8542 29.7917C33.8542 29.0334 33.2584 28.4376 32.5 28.4376ZM54.1667 29.7917C54.1667 41.7626 44.4709 51.4584 32.5 51.4584C20.5292 51.4584 10.8334 41.7626 10.8334 29.7917C10.8334 23.3188 13.7042 17.523 18.2 13.5417H46.8C51.2959 17.523 54.1667 23.3188 54.1667 29.7917ZM35.2084 20.3126C35.2084 22.5605 37.023 24.3751 39.2709 24.3751C41.5188 24.3751 43.3334 22.5605 43.3334 20.3126C43.3334 18.0647 41.5188 16.2501 39.2709 16.2501C37.023 16.2501 35.2084 18.0647 35.2084 20.3126ZM21.6667 20.3126C21.6667 22.5605 23.4813 24.3751 25.7292 24.3751C27.9771 24.3751 29.7917 22.5605 29.7917 20.3126C29.7917 18.0647 27.9771 16.2501 25.7292 16.2501C23.4813 16.2501 21.6667 18.0647 21.6667 20.3126ZM18.9584 35.2084C21.9646 35.2084 24.375 32.798 24.375 29.7917C24.375 26.8126 21.9646 24.3751 18.9584 24.3751C15.9521 24.3751 13.5417 26.8126 13.5417 29.7917C13.5417 32.798 15.9792 35.2084 18.9584 35.2084ZM31.1459 40.6251C31.1459 37.6459 28.7355 35.2084 25.7292 35.2084C22.723 35.2084 20.3125 37.6459 20.3125 40.6251C20.3125 43.6313 22.75 46.0417 25.7292 46.0417C28.7084 46.0417 31.1459 43.6313 31.1459 40.6251ZM32.5 35.2084C35.5063 35.2084 37.9167 32.798 37.9167 29.7917C37.9167 26.8126 35.5063 24.3751 32.5 24.3751C29.4938 24.3751 27.0834 26.8126 27.0834 29.7917C27.0834 32.798 29.5209 35.2084 32.5 35.2084ZM44.6875 40.6251C44.6875 37.6459 42.2771 35.2084 39.2709 35.2084C36.2646 35.2084 33.8542 37.6459 33.8542 40.6251C33.8542 43.6313 36.2917 46.0417 39.2709 46.0417C42.25 46.0417 44.6875 43.6313 44.6875 40.6251ZM51.4584 29.7917C51.4584 26.8126 49.048 24.3751 46.0417 24.3751C43.0355 24.3751 40.625 26.8126 40.625 29.7917C40.625 32.798 43.0625 35.2084 46.0417 35.2084C49.0209 35.2084 51.4584 32.798 51.4584 29.7917ZM46.0417 28.4376C45.2834 28.4376 44.6875 29.0334 44.6875 29.7917C44.6875 30.5501 45.2834 31.1459 46.0417 31.1459C46.8 31.1459 47.3959 30.5501 47.3959 29.7917C47.3959 29.0334 46.8 28.4376 46.0417 28.4376ZM39.2709 39.2709C38.5125 39.2709 37.9167 39.8667 37.9167 40.6251C37.9167 41.3834 38.5125 41.9792 39.2709 41.9792C40.0292 41.9792 40.625 41.3834 40.625 40.6251C40.625 39.8667 40.0292 39.2709 39.2709 39.2709Z" fill="black"/>
</svg>
